<svg xmlns="http://www.w3.org/2000/svg" viewBox="0 0 64 64">
  <defs>
    <radialGradient id="sky" cx="50%" cy="100%" r="120%">
      <stop offset="0%" stop-color="#1a2540"/>
      <stop offset="60%" stop-color="#0b1126"/>
      <stop offset="100%" stop-color="#05070f"/>
    </radialGradient>
    <linearGradient id="aurora" x1="0%" y1="0%" x2="100%" y2="0%">
      <stop offset="0%" stop-color="#3ef0a8" stop-opacity="0"/>
      <stop offset="25%" stop-color="#3ef0a8" stop-opacity="0.95"/>
      <stop offset="55%" stop-color="#5ad8ff" stop-opacity="0.95"/>
      <stop offset="85%" stop-color="#b96bff" stop-opacity="0.85"/>
      <stop offset="100%" stop-color="#b96bff" stop-opacity="0"/>
    </linearGradient>
    <linearGradient id="aurora2" x1="0%" y1="0%" x2="100%" y2="0%">
      <stop offset="0%" stop-color="#7ef7c8" stop-opacity="0"/>
      <stop offset="35%" stop-color="#7ef7c8" stop-opacity="0.7"/>
      <stop offset="70%" stop-color="#9ad8ff" stop-opacity="0.7"/>
      <stop offset="100%" stop-color="#9ad8ff" stop-opacity="0"/>
    </linearGradient>
    <filter id="glow" x="-30%" y="-30%" width="160%" height="160%">
      <feGaussianBlur stdDeviation="1.2"/>
    </filter>
  </defs>

  <rect width="64" height="64" rx="14" fill="url(#sky)"/>

  <circle cx="14" cy="14" r="0.7" fill="#e8f1ff"/>
  <circle cx="50" cy="10" r="0.6" fill="#e8f1ff"/>
  <circle cx="42" cy="20" r="0.5" fill="#bcd1ff"/>
  <circle cx="22" cy="9"  r="0.4" fill="#bcd1ff"/>

  <g filter="url(#glow)">
    <path d="M2 38 C 16 18, 30 50, 46 26 S 62 22, 62 30"
          fill="none" stroke="url(#aurora)" stroke-width="6" stroke-linecap="round"/>
    <path d="M2 46 C 18 30, 30 56, 48 36 S 62 34, 62 40"
          fill="none" stroke="url(#aurora2)" stroke-width="4" stroke-linecap="round"/>
  </g>

  <path d="M0 54 C 16 48, 32 56, 48 50 L 64 54 L 64 64 L 0 64 Z"
        fill="#0a1124" opacity="0.85"/>
  <path d="M0 56 L 12 52 L 22 58 L 34 50 L 46 57 L 56 51 L 64 56 L 64 64 L 0 64 Z"
        fill="#070b18"/>
</svg>
